<?xml version="1.0" standalone="no"?>
<!DOCTYPE svg PUBLIC "-//W3C//DTD SVG 20010904//EN"
 "http://www.w3.org/TR/2001/REC-SVG-20010904/DTD/svg10.dtd">
<svg version="1.0" xmlns="http://www.w3.org/2000/svg"
 width="538.000000pt" height="80.000000pt" viewBox="0 0 538.000000 80.000000"
 preserveAspectRatio="xMidYMid meet">

<g transform="translate(0.000000,80.000000) scale(0.100000,-0.100000)"
fill="#000000" stroke="none">
<path d="M0 400 l0 -400 2690 0 2690 0 0 400 0 400 -2690 0 -2690 0 0 -400z
m538 248 c7 -7 12 -43 12 -90 l0 -78 74 0 c96 0 106 -9 106 -95 0 -88 -11 -97
-106 -93 l-74 3 0 -82 c0 -71 -3 -84 -19 -93 -28 -15 -136 -13 -149 3 -6 7
-12 48 -14 92 l-3 79 -67 -3 c-99 -4 -108 4 -108 92 0 44 5 78 12 85 7 7 43
12 90 12 l78 0 0 78 c0 47 5 83 12 90 7 7 40 12 78 12 38 0 71 -5 78 -12z
m2488 -114 c32 -15 74 -57 74 -74 0 -4 -15 -11 -33 -17 -30 -9 -36 -7 -55 13
-24 27 -68 32 -98 10 -31 -23 -6 -48 72 -73 111 -36 149 -96 108 -174 -46 -90
-243 -89 -289 1 -19 37 -21 33 25 49 27 9 36 9 39 -1 2 -6 14 -22 27 -35 41
-41 124 -22 124 28 0 23 -24 36 -89 50 -71 15 -121 62 -121 114 0 20 8 50 17
66 32 53 131 75 199 43z m1031 -3 c36 -17 83 -65 72 -75 -2 -2 -18 -8 -35 -14
-28 -9 -34 -7 -53 14 -14 16 -31 24 -53 24 -44 0 -60 -12 -56 -41 2 -18 14
-26 59 -39 100 -30 149 -74 149 -133 0 -33 -45 -86 -87 -103 -47 -20 -117 -17
-163 6 -39 20 -70 54 -70 77 0 17 74 37 79 21 9 -26 52 -58 77 -58 32 0 64 26
64 52 0 19 -34 38 -106 57 -58 15 -92 45 -100 88 -19 104 109 175 223 124z
m1169 3 c32 -15 74 -57 74 -74 0 -4 -15 -11 -33 -17 -30 -9 -36 -7 -55 13 -24
27 -68 32 -98 10 -31 -23 -6 -48 72 -73 111 -36 149 -96 108 -174 -46 -90
-243 -89 -289 1 -19 37 -21 33 25 49 27 9 36 9 39 -1 2 -6 14 -22 27 -35 41
-41 124 -22 124 28 0 23 -24 36 -89 50 -71 15 -121 62 -121 114 0 20 8 50 17
66 32 53 131 75 199 43z m-4166 -134 c0 -127 2 -142 20 -160 23 -23 58 -26 86
-6 17 13 20 31 24 158 l5 143 38 3 37 3 0 -148 c0 -159 -6 -182 -52 -216 -41
-31 -133 -35 -185 -9 -62 32 -73 65 -73 224 0 74 3 138 7 141 3 4 26 7 50 7
l43 0 0 -140z m520 122 c66 -33 81 -118 31 -174 -27 -30 -35 -33 -103 -38
l-73 -5 -3 -72 -3 -73 -44 0 -45 0 0 190 0 190 103 0 c77 0 110 -4 137 -18z
m360 -22 l0 -40 -45 0 -45 0 0 -150 0 -150 -50 0 -50 0 0 150 0 150 -45 0 -45
0 0 40 0 40 140 0 140 0 0 -40z m410 22 c66 -33 81 -118 31 -174 -27 -30 -35
-33 -103 -38 l-73 -5 -3 -72 -3 -73 -44 0 -45 0 0 190 0 190 103 0 c77 0 110
-4 137 -18z m200 -122 c0 -127 2 -142 20 -160 11 -11 33 -20 50 -20 17 0 39 9
50 20 18 18 20 33 20 160 l0 140 35 0 35 0 0 -145 c0 -176 -9 -204 -69 -228
-52 -21 -109 -22 -160 -1 -62 24 -71 55 -71 228 l0 146 45 0 45 0 0 -140z
m710 58 l0 -82 56 82 c56 82 56 82 100 82 l44 0 -44 -65 -45 -64 24 -62 c14
-34 40 -90 60 -125 l35 -64 -53 0 -53 0 -34 71 c-19 39 -38 73 -41 75 -15 9
-49 -65 -49 -105 l0 -41 -50 0 -50 0 0 183 c0 101 3 187 7 190 3 4 26 7 50 7
l43 0 0 -82z m540 42 l0 -40 -95 0 -95 0 0 -35 0 -35 75 0 75 0 0 -40 0 -40
-76 0 -75 0 3 -37 3 -38 93 -3 92 -3 0 -34 0 -35 -140 0 -140 0 0 190 0 190
140 0 140 0 0 -40z m546 -40 c14 -41 28 -92 32 -114 7 -37 8 -36 46 78 l38
117 72 -3 c39 -2 70 -6 69 -10 -2 -5 -3 -89 -3 -188 l0 -180 -45 0 -45 0 -1
148 c-1 117 -3 140 -11 112 -6 -19 -26 -86 -46 -148 l-35 -113 -35 3 -35 3
-38 120 c-21 66 -39 130 -39 143 0 12 -3 22 -7 22 -5 0 -7 -65 -5 -145 l4
-145 -41 0 -41 0 0 190 0 191 71 -3 71 -3 24 -75z m559 -7 c15 -48 29 -99 30
-113 2 -14 15 -59 29 -100 14 -41 26 -76 26 -77 0 -2 -22 -3 -50 -3 -49 0 -49
0 -60 40 l-11 40 -63 0 -63 0 -12 -40 c-11 -38 -14 -40 -51 -40 -22 0 -40 2
-40 4 0 2 11 33 25 69 13 36 26 77 29 91 2 14 19 68 38 121 l33 95 56 0 57 0
27 -87z"/>
<path d="M440 431 c0 -13 -8 -21 -22 -23 -30 -4 -32 -43 -3 -43 13 0 21 -8 23
-22 5 -31 39 -31 44 0 2 12 10 22 18 22 8 0 16 10 18 23 3 17 -2 22 -17 22
-14 0 -21 6 -21 20 0 13 -7 20 -20 20 -13 0 -20 -7 -20 -19z"/>
<path d="M1430 420 l0 -50 43 0 c48 0 77 22 77 56 0 32 -20 44 -72 44 l-48 0
0 -50z"/>
<path d="M2200 420 l0 -50 43 0 c48 0 77 22 77 56 0 32 -20 44 -72 44 l-48 0
0 -50z"/>
<path d="M4803 424 c3 -3 -3 -30 -13 -60 l-19 -54 38 0 39 0 -14 38 c-7 20
-13 47 -14 60 0 12 -5 22 -12 22 -6 0 -9 -3 -5 -6z"/>
</g>
</svg>
