<?xml version="1.0" standalone="no"?>
<!DOCTYPE svg PUBLIC "-//W3C//DTD SVG 20010904//EN"
 "http://www.w3.org/TR/2001/REC-SVG-20010904/DTD/svg10.dtd">
<svg version="1.0" xmlns="http://www.w3.org/2000/svg"
 width="722.000000pt" height="84.000000pt" viewBox="0 0 722.000000 84.000000"
 preserveAspectRatio="xMidYMid meet">

<g transform="translate(0.000000,84.000000) scale(0.100000,-0.100000)"
fill="#000000" stroke="none">
<path d="M925 816 c-197 -49 -325 -240 -294 -441 49 -313 436 -439 659 -215
88 87 132 220 111 335 -24 127 -94 228 -198 283 -96 50 -182 62 -278 38z m185
-186 l5 -95 95 -5 95 -5 3 -78 c2 -50 -1 -84 -9 -93 -8 -10 -36 -14 -100 -14
l-89 0 0 -94 c0 -76 -3 -95 -16 -100 -28 -11 -150 -6 -162 6 -8 8 -12 45 -12
100 l0 88 -88 0 c-55 0 -92 4 -100 12 -12 12 -17 134 -6 162 5 13 24 16 100
16 l94 0 0 84 c0 121 -3 117 99 114 l86 -3 5 -95z"/>
<path d="M997 503 c-4 -3 -7 -14 -7 -24 0 -11 -9 -19 -22 -21 -31 -4 -31 -42
-1 -46 14 -2 23 -11 25 -25 2 -14 11 -23 26 -25 18 -3 22 1 22 22 0 18 6 25
23 28 14 2 23 11 25 26 3 18 -1 22 -22 22 -21 0 -26 5 -26 25 0 18 -5 25 -18
25 -10 0 -22 -3 -25 -7z"/>
</g>
</svg>
